<?xml version="1.0" encoding="UTF-8"?>
<svg id="Calque_1" data-name="Calque 1" xmlns="http://www.w3.org/2000/svg" viewBox="0 0 542.15 433.61">
  <defs>
    <style>
      .cls-1 {
        fill: #394744;
      }

      .cls-2 {
        fill: none;
        stroke: #000;
        stroke-linecap: round;
        stroke-linejoin: round;
        stroke-width: 0px;
      }
    </style>
  </defs>
  <g id="SPLINE">
    <path class="cls-2" d="m39.36,254.54h106.68l-1.41,99.65c-.12,8.66-1.35,16.6-3.67,23.83-2.33,7.23-5.36,13.42-9.12,18.56-30.58,42.41-88.52,46.78-119.97,17.59-18.77-17.42-11.49-40.42-3.74-44.7,21.83,35.67,32.7,47.03,54.09,47.07,22.37.04,29.57-25.42,29.57-63.2l1.16-81.12h-53.83l.25-17.68Z"/>
  </g>
  <g id="HATCH">
    <path class="cls-1" d="m39.36,254.54h106.68l-1.41,99.65c-.12,8.66-1.35,16.6-3.67,23.83-2.33,7.23-5.36,13.42-9.12,18.56-30.58,42.41-88.52,46.78-119.97,17.59-18.77-17.42-11.49-40.42-3.74-44.7,21.83,35.67,32.7,47.03,54.09,47.07,22.37.04,29.57-25.42,29.57-63.2l1.16-81.12h-53.83l.25-17.68Z"/>
  </g>
  <g id="SPLINE-2" data-name="SPLINE">
    <path class="cls-2" d="m341.01,398.12c5.37-4.47,6.87-10.69,4.49-18.68-2.38-7.99-7.77-16.94-16.18-26.86-8.41-9.92-18.83-19.7-31.25-29.33l.16-.12c-12.42-9.72-24.97-17.86-37.65-24.41-12.68-6.55-24.18-10.8-34.49-12.74-10.31-1.94-18.42-.89-24.32,3.16-.11-.08-.32-.21-.64-.38l.48.5c-5.48,4.39-7.05,10.53-4.73,18.43,2.32,7.91,7.61,16.77,15.86,26.61,8.25,9.83,18.58,19.61,31,29.33l.16-.12c12.42,9.64,25,17.8,37.73,24.47,12.73,6.67,24.34,11.02,34.81,13.05,10.47,2.03,18.66,1.06,24.56-2.91Z"/>
  </g>
  <g id="SPLINE-3" data-name="SPLINE">
    <path class="cls-2" d="m273.08,254.91c33.48.74,70.4,14.07,90.42,42.51,14.24,20.06,16.73,49.96,9.01,73.34-17.89,54.4-91.05,72.78-140.79,55.44-20.71-6.49-40.43-18.65-52.9-36.78-18.15-26.53-18.41-68.39,1.11-94.3,21.26-28.23,59.07-40.7,93.15-40.2Z"/>
  </g>
  <g id="HATCH-2" data-name="HATCH">
    <path class="cls-1" d="m341.01,398.12c5.37-4.47,6.87-10.69,4.49-18.68-2.38-7.99-7.77-16.94-16.18-26.86-8.41-9.92-18.83-19.7-31.25-29.33l.16-.12c-12.42-9.72-24.97-17.86-37.65-24.41-12.68-6.55-24.18-10.8-34.49-12.74-10.31-1.94-18.42-.89-24.32,3.16-.11-.08-.32-.21-.64-.38l.48.5c-5.48,4.39-7.05,10.53-4.73,18.43,2.32,7.91,7.61,16.77,15.86,26.61,8.25,9.83,18.58,19.61,31,29.33l.16-.12c12.42,9.64,25,17.8,37.73,24.47,12.73,6.67,24.34,11.02,34.81,13.05,10.47,2.03,18.66,1.06,24.56-2.91m-67.94-143.22c33.48.74,70.4,14.07,90.42,42.51,14.24,20.06,16.73,49.96,9.01,73.34-17.89,54.4-91.05,72.78-140.79,55.44-20.71-6.49-40.43-18.65-52.9-36.78-18.15-26.53-18.41-68.39,1.11-94.3,21.26-28.23,59.07-40.7,93.15-40.2Z"/>
  </g>
  <g id="SPLINE-4" data-name="SPLINE">
    <path class="cls-2" d="m541.24,253.78c-3.53,37.77,11.82,125.76-17.74,155.07-25.31,29.57-91.69,33.15-115.32,8.03-11.17-12.39-17.92-34.4-3.63-45.06,34.5,58.93,78.23,66.07,82.27-1.9-57.5-13.24-92.01-36.45-90.7-116.12,20.35.08,38.5.08,54.46-.01-1.4,34.62-6.74,96.38,36.76,107,.31-.78-.1-103.91-.03-107.01h53.94Z"/>
  </g>
  <g id="HATCH-3" data-name="HATCH">
    <path class="cls-1" d="m541.24,253.78c-3.53,37.77,11.82,125.76-17.74,155.07-25.31,29.57-91.69,33.15-115.32,8.03-11.17-12.39-17.92-34.4-3.63-45.06,34.5,58.93,78.23,66.07,82.27-1.9-57.5-13.24-92.01-36.45-90.7-116.12,20.35.08,38.5.08,54.46-.01-1.4,34.62-6.74,96.38,36.76,107,.31-.78-.1-103.91-.03-107.01h53.94Z"/>
  </g>
  <g id="SPLINE-5" data-name="SPLINE">
    <path class="cls-2" d="m199.04,117.62c-8.94-11.97-14.56-26.25-15.61-41.68-20.89-1.4-40.45,16.43-40.45,37.19,0,16.4,9.76,30.57,23.82,35.65.71-13.5,13.57-23.99,32.24-31.16Z"/>
  </g>
  <g id="HATCH-4" data-name="HATCH">
    <path class="cls-1" d="m199.04,117.62c-8.94-11.97-14.56-26.25-15.61-41.68-20.89-1.4-40.45,16.43-40.45,37.19,0,16.4,9.76,30.57,23.82,35.65.71-13.5,13.57-23.99,32.24-31.16Z"/>
  </g>
  <g id="SPLINE-6" data-name="SPLINE">
    <path class="cls-2" d="m271.13.03c-60.77-1.69-99.79,68.44-60.43,113.74,15.52-4.38,41.37-7.4,60.43-7.4,19.06,0,44.91,3.02,60.43,7.4C370.92,68.47,331.9-1.66,271.13.03Z"/>
  </g>
  <g id="HATCH-5" data-name="HATCH">
    <path class="cls-1" d="m271.13.03c-60.77-1.69-99.79,68.44-60.43,113.74,15.52-4.38,41.37-7.4,60.43-7.4,19.06,0,44.91,3.02,60.43,7.4C370.92,68.47,331.9-1.66,271.13.03Z"/>
  </g>
  <g id="SPLINE-7" data-name="SPLINE">
    <path class="cls-2" d="m363.91,148.89c-5.01-23.5-66.33-30.89-92.71-30.92h0s-.05,0-.08,0-.05,0-.08,0h0c-26.37.03-87.7,7.42-92.71,30.92,0,0,32.8,107.2,32.8,107.2,13.62-10.46,40.5-15.7,59.98-15.71,19.48.02,46.36,5.25,59.98,15.71,0,0,32.8-107.2,32.8-107.2Z"/>
  </g>
  <g id="HATCH-6" data-name="HATCH">
    <path class="cls-1" d="m363.91,148.89c-5.01-23.5-66.33-30.89-92.71-30.92h0s-.05,0-.08,0-.05,0-.08,0h0c-26.37.03-87.7,7.42-92.71,30.92,0,0,32.8,107.2,32.8,107.2,13.62-10.46,40.5-15.7,59.98-15.71,19.48.02,46.36,5.25,59.98,15.71,0,0,32.8-107.2,32.8-107.2Z"/>
  </g>
  <g id="SPLINE-8" data-name="SPLINE">
    <path class="cls-2" d="m343.22,117.62c8.94-11.97,14.56-26.25,15.61-41.68,20.89-1.4,40.45,16.43,40.45,37.19,0,16.4-9.76,30.57-23.82,35.65-.71-13.5-13.57-23.99-32.24-31.16Z"/>
  </g>
  <g id="HATCH-7" data-name="HATCH">
    <path class="cls-1" d="m343.22,117.62c8.94-11.97,14.56-26.25,15.61-41.68,20.89-1.4,40.45,16.43,40.45,37.19,0,16.4-9.76,30.57-23.82,35.65-.71-13.5-13.57-23.99-32.24-31.16Z"/>
  </g>
</svg>